<?xml version="1.0" encoding="UTF-8"?>
<!-- Activity Bar icon — fill="currentColor" so VS Code themes it monochromatically -->
<svg id="Capa_1" data-name="Capa 1" xmlns="http://www.w3.org/2000/svg" viewBox="0 0 583.311 535.231" fill="currentColor">
  <path d="M427.638,163.83l26.899,74.154-49.978,83.405-36.152,60.805-76.621,62.092-65.879-53.139-12.286-10.975-28.226-47.777-56.713-94.029,16.796-45.989,28.053-77.561,11.76,9.873,34.106,27.91c10.572,8.651,20.492,17.621,32.469,24.351,12.039,6.764,26.707,3.235,36.738-5.308.969-.825,2.595-2.025,3.449-1.886,1.025.167,3.103,1.311,3.948,2.076,12.134,10.98,28.923,11.828,41.862,1.865l12.987-10.001,59.25-48.733,17.537,48.867ZM357.942,196.85c3.397-.233,7.967-3.885,11.322-4.566l12.633-2.562c5.03-2.058,9.046-3.364,14.639-3.562l13.015-.463c1.601-.057,4.568-2.205,5.551-3.335l-3.335-15.029-4.173-11.275-2.771-7.471c-.934-1.38-6.083-1.79-7.727-.624l-11.16,7.917-9.076,6.316c-8.228,5.726-8.93,10.187-13.563,14.886l-6.22,6.308c-11.994-1.763-9.312,9.279-17.899,10.933-.999,1.629.234,6.467,1.768,7.524l7.873-3.408c3.013-1.304,4.899-1.3,9.122-1.589ZM240.752,202.008c.602.191,2.281.23,2.448-.358s.447-2.726.199-3.284l-3.266-7.334-7.148-1.87-1.425-4.752c-4.665.19-7.155-1.69-8.514-5.623l-7.014-4.638-7.262-8.322c-1.224-1.403-4.734-3.32-6.502-4.289-4.444-4.854-9.848-7.049-15.976-8.925-1.443-1.237-4.241-3.981-5.978-3.291-2.369.941-3.514,2.484-4.121,4.737l-3.467,12.89-2.622,9.159-2.1,7.809,9.298,2.075c3.364.751,6.585,1.104,10.157,1.431l13.623,1.244c11.155,1.019,14.799,6.039,21.362,4.103l10.751,6.682,4.37-.688c.911-.144,2.057,1.86,3.188,3.244ZM322.27,407.812l10.835-8.078c3.754-2.799,8.228-6.596,11.404-10.094,1.841-2.028,1.481-4.68,5.664-4.885l5.657-6.861,4.094-4.415,5.815-8.576c2.229-3.288,4.149-4.352,5.186-8.343,1.586-6.102,5.889-11.273,8.908-16.807l9.328-17.096c3.578-6.558,7.515-12.967,7.168-21.313l4.488-4.582-3.458-.897c-.846-.22-1.586,2.955-2.092,3.571l-9.75,5.711-6.473,3.686-6.083,4.107-4.045-.068-10.581,3.966-16.525,3.797-10.568,1.3c-6.353.781-13.759.566-19.773-.359-2.591-2.649-5.491-4.917-8.346-6.861-4.549-3.097-2.724-9.706-3.106-13.951-.459-5.085-3.623-9.974-1.945-15.153,1.211-3.736,3.715-10.324-.537-13.081-7.902-5.124-11.969-13.225-10.229-15.809,2.878-4.273,9.928,3.827,16.275-1.166-.533-6.261,1.758-10.992,5.669-15.395l1.115-4.35c.446-1.74,14.846-.595,13.288-15.077l8.538-4.081c3.2-1.53,6.909-6.256,9.343-9.478-.353-1.996-3.315-3.772-4.969-4.797l-6.984-4.328-4.993,3.821c-4.379-3.192-8.718-.763-11.035,2.462l-18.473-1.21c-1.416-.093-1.568-3.142-.576-5.698-.397-.419-3.423-1.897-4.732-2.437l.704,3.647c.111.573-1.699,1.309-2.165,1.874-2.064,2.498-4.297,3.08-7.863,3.162l-20.936.485c-1.022-2.293-2.883-3.976-4.531-3.833-1.143.1-2.418,2.022-3.05,3.956l-9.996,2.834,8.925,3.746c1.185,2.832,2.401,4.769,4.152,6.868l4.538,5.441c2.267,2.718,4.203,4.891,7.468,6.537l.992,3.594c.206.746,2.903.757,3.474,1.32,2.771,2.733,7.438,8.73,7.857,12.383-.791,4.983-.722,7.726.167,11.989,1.195,5.728,1.792,10.64,6.375,15.26,1.321,1.331.416,6.034-.965,7.309-3.255,3.004-2.715,6.262-1.912,10.078,1.619,7.691,1.538,15.952-2.721,22.719-2.398,3.811-7.329,6.412-11.859,8.122-5.204,1.964-19.11.34-27.213-1.518l-9.465-1.665-15.247-2.96-7.321-1.746c-.781-1.428-2.913-4.478-4.585-5.067l-8.248-2.904c-1.178-.948-3.944-4.007-5.319-2.928-3.066,2.408-2.807,6.794-.708,9.939,6.982,10.461,12.383,21.456,16.747,33.185,1.921,1.886,3.785,4.428,5.073,6.913l5.066,9.771c4.807,9.271,11.275,15.468,18.96,22.45l9.348,8.493,8.551,7.377,13.757,11.411,6.609,6.14,8.204,5.986c7.913,5.773,18.544.685,26.364-6.424l6.886-6.26,6.386-4.857ZM270.94,311.793l-7.253-49.38c-1.132-7.71-4.73-13.618-10.212-18.92l-24.631-26.473c-3.026-3.252-8.045-4.575-12.304-5.737-17.015-4.643-33.275-8.993-51.25-10.431l2.635,33.853c.703,9.031,2.525,17.468,4.846,26.323l19.742,21.419,18.047,18.108c19.845,5.566,39.102,9.804,60.38,11.239ZM373.307,300.478l19.351-19.899,10.723-11.298c5.944-5.337,9.939-12.306,10.585-20.484l3.758-47.532c-14.978.244-28.423,3.547-42.179,8.013l-18.899,6.136-15.16,16.108-19.352,21.738c-4.518,19.402-7.436,38.113-9.352,58.296,10.204-.238,18.672-.939,27.682-3.121l32.843-7.956Z"/>
  <path d="M231.162,105.638c3.76-1.872,10.267-.266,14.963-.645,1.295-.104,1.603-4.585.386-5.122-4.237-.192-11.154-1.314-15.465-.112-6.309,1.758-12.787,5.145-17.717,9.221-4.28,3.538-4.822,10.903-7.249,16.332l-16.205-12.864c-10.148-8.056-12.718-23.42-5.336-34.433,3.357-5.008,8.666-9.771,13.284-13.567l19.285-.248,9.18,14.46,4.815-3.529-11.108-16.472-24.018-.133c-1.351-19.529,18.067-38.87,37.347-37.512l1.922,14.079c.178,1.301,2.973,3.457,4.112,4.066l16.914,9.04,2.88-2.405c.72-.601-1.143-3.047-2.001-3.537l-16.109-9.177c-1.011-4.856-2.057-11.725-.082-16.625C244.658,7.278,254.07.09,263.984,0c12.667-.113,21.161,11.39,21.274,23.516l.456,48.634-17.882,11.002-14.852-8.963-1.985,5.359,16.31,10.105,17.915-10.223-.189,69.07c-.018,6.603-4.625,12.985-8.934,15.717-12.408,7.866-26.203-1.083-36.082-12.247l4.094-15.977,15.098-7.274c1.136-.547,2.648-1.805,3.115-2.734.561-1.115-1.956-4.155-3.088-3.614l-14.457,6.923c-3.929,1.882-6.005,4.712-7.277,8.83l-3.599,11.657-12.01-10.328-11.543-10.367,5.959-16.054,14.854-7.394ZM266.499,21.474c-1.68-2.225-4.547-2.429-6.759-1.103-1.403.841-3.343,3.271-3.07,4.594s2.239,3.286,3.875,4.162c1.958,1.049,5.207.616,6.61-.894,1.294-1.392,1.034-4.52-.656-6.759ZM252.255,62.318c-1.83-4.261-5.328-5.096-9.434-4.741-3.119.27-5.063.333-6.45,3.265-.9,1.903.208,4.593,2.028,6.016,1.763,1.379,4.441.022,6.544-.997l7.313-3.544ZM216.351,90.838c2.09-2.726-2.091-4.837-3.545-6.079-1.198-1.023-4.314-4.239-5.671-3.429-4.644,2.771-10.024,11.769-4.772,15.302,3.013,2.026,6.205-3.778,13.987-5.794Z"/>
  <path d="M215.177,398.195c2.304,2.194,3.935,3.764,5.768,6.88l-57.807.253-55.755,128.877-8.827.751-23.065-.061-26.969.084-17.054-.047-31.467.299L122.231,253.682l18.22,29.414c1.044,1.685,4.02,5.346,3.208,7.221l-35.753,82.559-55.728,127.46,34.981-.078,54.224-126.905,54.121-.047c4.461,10.39,9.851,18.846,19.673,24.888ZM167.532,385.459c-8.934-2.219-21.281,2.535-25.75,11.534l-4.215,8.487-3.328,8.44-4.473,11.833c-3.393,2.929-5.138,6.767-5.758,11.263-2.86,2.845-4.73,6.292-5.79,10.252.293,6.959-4.619,11.041-7.128,16.715l-7.662,17.327c-5.284,11.95-10.371,24.312-23.789,26.504-4.15.678-11.206,1.18-15.412-.129l-8.32-2.589c-5.325-1.657-6.694-4.656-6.579-9.743.101-4.49-.176-9.848,2.59-13.442,5.983-7.773,4.97-14.698,9.712-23.343l3.892-7.096,2.693-6.59,3.118-8.96c2.346-6.742,7.824-13.174,9.389-20.123,1.181-5.24,2.262-8.839,5.174-13.315l3.742-11.876c.63-.629,2.288-1.751,2.409-2.534.097-.627-.346-2.341.094-2.801.786-.822,2.84-2.248,2.318-2.967l-1.831-2.522c1.151-.51,3.359-1.718,3.668-2.746l4.454-14.826c1.58-5.26,2.701-9.425,5.694-13.812l3.667-5.374c.348-6.004,3.57-10.199,4.701-16.299l1.895-10.214,1.195-7.299.442-2.689c.072-.44-3.227-.166-3.481.201l-9.335,13.506c-2.17,3.14-3.134,5.471-4.632,8.866-2.559,5.802-4.946,11.574-4.791,17.627-2.662,2.074-4.928,5.053-6.413,8.067l-4.318,8.764-3.695,7.367c-1.179,2.351-2.184,6.116-2.832,8.832-4.981,5.388-6.771,12.106-9.798,18.424l-11.925,24.898-7.51,17.221c-2.731,6.262-4.14,12.453-7.956,18.342-3.25,5.017-4.42,11.597-7.008,16.896l-4.386,8.979-3.327,6.481-6.093,13.798-5.436,13.395,1.656,8.029c2.934,1.17,6.867,2.275,10.393,2.275l65.816-.01c2.772,0,5.73-2.384,7.428-3.648,4.507-3.352,6.452-7.675,8.711-12.79l2.93-6.633c2.77-6.272,4.505-12.186,7.941-18.205,4.61-8.077,7.642-16.312,9.622-25.34,4.171-5.194,6.312-11.326,7.35-17.722,4.964-3.195,3.511-10.96,5.985-15.154l4.063-6.886c3.35-5.679,5.255-11.495,6.962-17.942l8.215-8.288,10.2-3.024c3.053-.905,5.37.384,7.524-4.238l-12.676-3.149Z"/>
  <path d="M481.999,535.171c-3.638.027-5.669-.534-6.946-3.497l-54.467-126.319-58.476-.244c3.524-5.088,8.176-8.497,13.243-11.862,5.393-6.089,9.179-12.44,13.206-19.944l53.909.118,53.791,126.852,34.996-.073-70.454-160.997-21.454-50.499,21.718-34.852,44.002,101.873,20.412,46.698,16.389,37.744,41.441,94.058c-4.71,1.366-7.878.637-11.952.622l-36.834-.139-12.066.082-14.97.188-25.488.19ZM401.644,390.839c6.314,3.384,14.282,6.949,19.851,5.702-.147,3.545,2.085,7.109,5.429,7.809l8.1,9.351,2.045,7.034,2.646,8.963,4.699,13.343,9.013,19.323,2.207,6.636,4.801,10.452,8.324,16.563,4.852,17.386,10.551,12.834c2.219,2.699,7.54,2.352,11.331,2.346l67.184-.107c2.375-.004,5.111-3.983,5.675-6.036.615-2.235-.756-5.564-1.686-7.922l-8.803-22.328-3.6-6.249-4.348-10.65-8.535-18.629-5.109-11.807-6.193-12.903-6.194-9.852c.044-3.872-.746-6.377-2.157-9.691l-5.313-12.473-3.415-2.223c-.582-.379.839-3.084.425-3.724l-8.02-12.413c-2.521-3.901-3.006-8.466-4.008-13.13-1.661-7.732-13.27-17.484-17.023-31.233-.884-3.238-.93-6.789-2.507-9.896l-4.129-8.139c-1.323-2.607-3.382-3.724-7.144-4.478l-1.575-8.207c-.438-2.28-3.985-6.015-5.112-8.131l-1.758-3.3c-.383-.719-2.677,1.697-2.092,2.298,2.15,2.212,2.672,8.365,1.984,11.516,3.42,4.487,5.953,9.58,6.026,14.963.055,4.084,4.319,14.636,6.755,18.227,1.566,2.308,1.712,4.176,2.734,6.71l2.761,6.846,3.06,9.268,2.752,9.163c3.233,7.907,9.218,9.45,8.769,20.194l1.799,7.173c.127.505.085,2.343.582,2.351l1.67.028,7.859,20.208c2.332,5.997,5.432,10.732,7.603,16.657l2.896,7.904,4.969,9.837,12.919,33.531c1.014,2.631-1.537,9.134-2.63,11.098l-13.91,4.687c-3.522,1.187-10.933,1.338-14.832.199l-7.769-2.269c-4.245-1.24-6.232-6.867-8.591-10.085-3.395-4.629-5.398-8.714-7.296-13.957l-4.56-12.594-3.884-7.805c-8.657-5.667-3.281-15.418-11.637-25.483l-2.35-6.325c-1.467-3.95-3.707-6.604-5.715-10.564l-7.478-14.748-2.815-8.795c-6.221-10.476-18.49-9.84-32.306-10.121-3.346-.068-8.172.569-7.779,5.668Z"/>
  <path d="M344.693,81.316l-10.671,16.439c-.545.839.694,3.067,1.507,3.307s3.211-.362,3.723-1.194l7.936-12.898,28.964-.196,14.719-17.967c14.197,10.003,16.222,30.131,3.581,42.833l-17.086,13.462c-2.418-5.076-2.895-10.427-6.391-14.517-2.802-3.278-9.883-6.703-13.389-9.033-.781-.52-3.216.617-3.32,1.448-.129,1.033.663,3.533,1.662,4.119l10.611,6.232,6.781,15.143-25.611,22.118-5.247-19.64-17.636-3.673-8.522-27.786-18.915-7.812.045-67.27c.004-5.422,2.077-10.931,4.805-15.139,6.343-9.781,18.644-12.022,28.26-5.861,5.65,3.62,11.871,8.399,11.719,16.067-1.794,4.709-5.946,9.979-9.145,14.511l-14.817.205c-1.412.02-2.057,4.986-.696,5.197l15.251.672,4.121,17.328-14.902,9.021c-.801.483.457,3.926,1.415,3.923.964-.003,3.16-.332,4.002-.85l15.506-9.545-5.483-22.899,11.015-15.46c5.189-2.861,12.28.15,17.033,2.756,16.158,8.86,24.511,24.139,20.093,41.951l-7.741,9.561-4.564,5.189-28.612.257ZM374.15,60.73l-8.887,5.712c-2.03,1.305-6.201,1.218-8.1.011-2.703-1.718-3.884-4.52-3.906-7.875l-.066-10.307c-.024-3.758,2.793-8.001,7.094-6.616l7.707,2.483,4.187,6.212c-.713,3.845-.512,5.377,1.971,10.381Z"/>
  <path d="M244.601,455.071l17.863,55.522-31.455-31.665-24.687-25.413,18.023-46.525c2.773,1.175,4.792,2.806,6.963,4.605l30.288,25.095-6.988,7.831-10.008,10.549ZM234.349,471.61c.865,1.117,4.3-1.422,4.331-2.868l.369-17.136c.063-2.92,3.773-7.816,3.271-10.905-1.121-6.892-8.883-10.889-15.107-8.537-2.367,2.261-3.486,7.167-4.828,10.09-.971,2.113-2.77,4.942-2.338,6.614l2.1,8.139,4.564,5.089,7.639,9.512Z"/>
  <path d="M321.528,509.546l16.976-53.907-16.827-18.818,37.251-30.549,18.035,47.602-44.521,45.319c-3.282,3.874-6.031,6.976-10.914,10.352ZM361.146,451.235c3.441-3.569,2.618-7.782.301-11.739-.872-2.637-2.521-5.465-4.468-7.457-3.546-3.627-7.455-.94-10.871.82-4.247,2.187-6.407,4.506-5.075,10.17.437,1.859,1.971,4.498,3.605,6.574-1.925,3.871-1.496,8.105,2.079,10.962-.669,2.125-1.512,6.01.312,7.849,1,1.009,17.914-6.667,14.118-17.178Z"/>
  <path d="M338.512,135.858l3.368,17.472c-5.431,6.609-11.679,11.354-19.786,13.498-11.299,2.988-23.109-4.592-24.008-16.98-1.243-17.123-.381-33.669-.483-51.663l13.961,4.958,8.711,29.292,18.236,3.423Z"/>
  <path d="M322.375,407.812l-6.41,4.857-6.912,6.26c-7.849,7.108-18.521,12.197-26.464,6.424l-8.236-5.986-6.634-6.14-13.809-11.411-8.584-7.377-9.384-8.493c-7.714-6.982-14.207-13.179-19.032-22.45l-5.085-9.771c-1.294-2.486-3.164-5.027-5.093-6.913-4.381-11.73-9.802-22.724-16.811-33.185-2.108-3.146-2.368-7.531.71-9.939,1.38-1.079,4.157,1.98,5.339,2.928l8.28,2.904c1.679.589,3.819,3.639,4.603,5.067l7.349,1.746,15.305,2.96,9.501,1.665c8.133,1.858,22.092,3.482,27.316,1.518,4.548-1.71,9.497-4.311,11.904-8.122,4.275-6.768,4.357-15.028,2.731-22.719-.806-3.816-1.348-7.073,1.919-10.078,1.386-1.275,2.295-5.978.969-7.309-4.6-4.62-5.199-9.531-6.399-15.26-.893-4.262-.962-7.005-.168-11.989-.421-3.653-5.106-9.65-7.887-12.383-.573-.563-3.28-.574-3.487-1.32l-.996-3.594c-3.277-1.646-5.221-3.819-7.496-6.537l-4.555-5.441c-1.758-2.099-2.978-4.036-4.168-6.868l-8.959-3.746,10.034-2.834c.635-1.933,1.914-3.856,3.062-3.956,1.654-.144,3.522,1.54,4.548,3.833l21.015-.485c3.58-.083,5.821-.664,7.893-3.162.468-.564,2.284-1.3,2.173-1.874l-.706-3.647c1.314.54,4.351,2.018,4.75,2.437-.996,2.556-.843,5.605.578,5.698l18.543,1.21c2.326-3.225,6.681-5.653,11.077-2.462l5.012-3.821,7.011,4.328c1.661,1.025,4.633,2.801,4.988,4.797-2.443,3.222-6.166,7.949-9.378,9.478l-8.57,4.081c1.564,14.482-12.89,13.337-13.338,15.077l-1.119,4.35c-3.925,4.403-6.225,9.134-5.691,15.395-6.371,4.993-13.447-3.107-16.336,1.166-1.747,2.584,2.335,10.685,10.267,15.809,4.268,2.757,1.755,9.345.539,13.081-1.685,5.179,1.492,10.069,1.952,15.153.384,4.244-1.448,10.853,3.118,13.951,2.866,1.944,5.777,4.212,8.377,6.861,6.037.925,13.471,1.14,19.848.359l10.608-1.3,16.588-3.797,10.621-3.966,4.06.068,6.106-4.107,6.497-3.686,9.787-5.711c.508-.616,1.251-3.791,2.1-3.571l3.471.897-4.505,4.582c.348,8.347-3.604,14.755-7.195,21.313l-9.363,17.096c-3.031,5.534-7.35,10.705-8.942,16.807-1.041,3.991-2.969,5.055-5.206,8.343l-5.837,8.576-4.109,4.415-5.678,6.861c-4.199.205-3.838,2.858-5.685,4.885-3.187,3.498-7.679,7.296-11.447,10.094l-10.876,8.078ZM275.674,218.46c-1.022-1.576-3.372-3.04-4.761-3.106-1.42-.068-3.855,2.546-3.496,4.036,2.253,1.143,5.866.612,8.258-.93ZM299.641,229.826l-11.162-1.431c-3.303-.424-7.789-1.293-9.519,3.192,7.441.776,14.792,1.801,20.681-1.761ZM288.334,239.7l-2.491-3.512c-.353-.498-2.654.109-2.734.716l-.426,3.238c-.152,1.158,1.959,2.49,3.268,2.511.951.015,2.928-2.183,2.383-2.952Z"/>
  <path d="M345.368,205.041c-5.254.381-7.601.375-11.349,2.094l-9.796,4.491c-1.909-1.393-3.442-7.769-2.2-9.915,10.683-2.179,7.347-16.73,22.27-14.407l7.739-8.312c5.765-6.192,6.638-12.071,16.875-19.616l11.292-8.323,13.885-10.433c2.047-1.538,8.453-.997,9.614.822l3.447,9.845,5.192,14.858,4.149,19.805c-1.223,1.488-4.914,4.319-6.907,4.394l-16.193.61c-6.959.262-11.955,1.982-18.214,4.694l-15.718,3.377c-4.175.897-9.86,5.71-14.087,6.017Z"/>
  <path d="M263.474,218.536c-1.609-2.078-3.239-5.085-4.536-4.869l-6.218,1.033-15.297-10.03c-9.339,2.905-14.524-4.63-30.395-6.159l-19.383-1.867c-5.084-.49-9.666-1.02-14.453-2.147l-13.229-3.114,2.988-11.721,3.73-13.748,4.934-19.348c.862-3.382,2.492-5.698,5.863-7.111,2.472-1.036,6.453,3.084,8.506,4.94,8.72,2.815,16.409,6.109,22.732,13.396,2.516,1.455,7.51,4.332,9.252,6.438l10.332,12.491,9.98,6.962c1.934,5.903,5.476,8.726,12.114,8.44l2.028,7.133,10.171,2.807,4.647,11.009c.354.838-.046,4.047-.283,4.929s-2.627.825-3.483.538Z"/>
  <path d="M216.351,90.838c-7.783,2.016-10.975,7.82-13.987,5.794-5.253-3.533.127-12.53,4.772-15.302,1.358-.81,4.474,2.406,5.671,3.429,1.454,1.241,5.634,3.352,3.545,6.079Z"/>
  <path d="M252.255,62.318l-7.313,3.544c-2.102,1.019-4.78,2.376-6.544.997-1.82-1.423-2.928-4.113-2.028-6.016,1.387-2.932,3.331-2.995,6.45-3.265,4.106-.356,7.605.48,9.434,4.741Z"/>
  <path d="M167.532,385.459l12.676,3.149c-2.155,4.622-4.471,3.333-7.524,4.238l-10.2,3.024-8.215,8.288c-1.707,6.447-3.612,12.263-6.962,17.942l-4.063,6.886c-2.475,4.195-1.021,11.959-5.985,15.154-1.038,6.396-3.179,12.528-7.35,17.722-1.98,9.028-5.012,17.263-9.622,25.34-3.436,6.019-5.171,11.933-7.941,18.205l-2.93,6.633c-2.259,5.115-4.204,9.438-8.711,12.79-1.698,1.263-4.656,3.647-7.428,3.648l-65.816.01c-3.526,0-7.46-1.105-10.393-2.275l-1.656-8.029,5.436-13.395,6.093-13.798,3.327-6.481,4.386-8.979c2.588-5.299,3.757-11.879,7.008-16.896,3.815-5.889,5.225-12.08,7.956-18.342l7.51-17.221,11.925-24.898c3.026-6.318,4.817-13.036,9.798-18.424.648-2.716,1.653-6.481,2.832-8.832l3.695-7.367,4.318-8.764c1.485-3.014,3.751-5.992,6.413-8.067-.155-6.054,2.232-11.826,4.791-17.627,1.498-3.395,2.461-5.726,4.632-8.866l9.335-13.506c.254-.367,3.554-.641,3.481-.201l-.442,2.689-1.195,7.299-1.895,10.214c-1.131,6.1-4.354,10.296-4.701,16.299l-3.667,5.374c-2.993,4.386-4.113,8.552-5.694,13.812l-4.454,14.826c-.309,1.029-2.517,2.236-3.668,2.746l1.831,2.522c.522.719-1.532,2.145-2.318,2.967-.44.46.003,2.174-.094,2.801-.122.783-1.779,1.905-2.409,2.534l-3.742,11.876c-2.912,4.476-3.994,8.075-5.174,13.315-1.566,6.949-7.043,13.381-9.389,20.123l-3.118,8.96-2.693,6.59-3.892,7.096c-4.741,8.645-3.729,15.57-9.712,23.343-2.766,3.594-2.489,8.952-2.59,13.442-.115,5.087,1.255,8.086,6.579,9.743l8.32,2.589c4.206,1.309,11.262.807,15.412.129,13.418-2.192,18.505-14.554,23.789-26.504l7.662-17.327c2.509-5.674,7.421-9.757,7.128-16.715,1.061-3.959,2.93-7.407,5.79-10.252.62-4.495,2.365-8.333,5.758-11.263l4.473-11.833,3.328-8.44,4.215-8.487c4.469-8.999,16.816-13.753,25.75-11.534Z"/>
  <path d="M401.644,390.839c-.394-5.099,4.432-5.736,7.779-5.668,13.815.282,26.085-.354,32.306,10.121l2.815,8.795,7.478,14.748c2.008,3.96,4.248,6.614,5.715,10.564l2.35,6.325c8.357,10.065,2.98,19.816,11.637,25.483l3.884,7.805,4.56,12.594c1.898,5.243,3.901,9.327,7.296,13.957,2.36,3.218,4.346,8.845,8.591,10.085l7.769,2.269c3.899,1.139,11.31.988,14.832-.199l13.91-4.687c1.093-1.964,3.643-8.467,2.63-11.098l-12.919-33.531-4.969-9.837-2.896-7.904c-2.171-5.925-5.271-10.66-7.603-16.657l-7.859-20.208-1.67-.028c-.496-.008-.455-1.846-.582-2.351l-1.799-7.173c.449-10.744-5.536-12.288-8.769-20.194l-2.752-9.163-3.06-9.268-2.761-6.846c-1.022-2.533-1.168-4.402-2.734-6.71-2.436-3.591-6.7-14.143-6.755-18.227-.073-5.382-2.606-10.476-6.026-14.963.688-3.15.166-9.304-1.984-11.516-.584-.601,1.709-3.017,2.092-2.298l1.758,3.3c1.127,2.116,4.675,5.85,5.112,8.131l1.575,8.207c3.763.753,5.822,1.87,7.144,4.478l4.129,8.139c1.576,3.107,1.623,6.658,2.507,9.896,3.753,13.748,15.362,23.5,17.023,31.233,1.002,4.664,1.487,9.228,4.008,13.13l8.02,12.413c.414.64-1.006,3.345-.425,3.724l3.415,2.223,5.313,12.473c1.412,3.314,2.201,5.819,2.157,9.691l6.194,9.852,6.193,12.903,5.109,11.807,8.535,18.629,4.348,10.65,3.6,6.249,8.803,22.328c.93,2.358,2.3,5.686,1.686,7.922-.565,2.054-3.301,6.033-5.675,6.036l-67.184.107c-3.791.006-9.112.353-11.331-2.346l-10.551-12.834-4.852-17.386-8.324-16.563-4.801-10.452-2.207-6.636-9.013-19.323-4.699-13.343-2.646-8.963-2.045-7.034-8.1-9.351c-3.344-.7-5.576-4.264-5.429-7.809-5.569,1.247-13.538-2.318-19.851-5.702Z"/>
  <circle cx="262.933" cy="25.249" r="6.289"/>
</svg>
